<?xml version="1.0" standalone="no"?>
<!DOCTYPE svg PUBLIC "-//W3C//DTD SVG 20010904//EN"
 "http://www.w3.org/TR/2001/REC-SVG-20010904/DTD/svg10.dtd">
<svg version="1.0" xmlns="http://www.w3.org/2000/svg"
 width="260.000000pt" height="260.000000pt" viewBox="0 0 260.000000 260.000000"
 preserveAspectRatio="xMidYMid meet">
<metadata>
Created by potrace 1.11, written by Peter Selinger 2001-2013
</metadata>
<g transform="translate(0.000000,260.000000) scale(0.100000,-0.100000)"
fill="#000000" stroke="none">
<path d="M0 1300 l0 -1300 1300 0 1300 0 0 1300 0 1300 -1300 0 -1300 0 0
-1300z m885 570 c99 -25 145 -53 218 -129 106 -111 155 -272 143 -471 -10
-179 -50 -285 -146 -384 -109 -114 -216 -152 -405 -143 -166 8 -263 49 -352
151 -93 106 -133 231 -133 421 0 202 44 331 149 436 31 31 81 69 111 84 111
56 277 70 415 35z m1169 -6 c146 -37 265 -150 299 -284 8 -30 13 -58 10 -62
-2 -5 -53 -8 -113 -8 l-110 0 -15 38 c-66 157 -292 192 -423 64 -68 -67 -93
-135 -99 -277 -10 -217 49 -329 201 -381 58 -20 155 -15 208 10 19 9 50 31 68
49 31 30 80 118 80 145 0 9 -32 12 -125 12 l-126 0 3 93 3 92 228 3 227 2 0
-295 0 -295 -79 0 -79 0 -7 53 c-4 28 -9 56 -12 60 -3 4 -26 -12 -52 -37 -58
-53 -108 -80 -179 -95 -276 -58 -527 110 -587 395 -19 88 -19 230 0 319 41
196 180 352 356 399 74 20 245 20 323 0z"/>
<path d="M650 1681 c-147 -45 -220 -188 -207 -411 4 -78 11 -111 33 -160 63
-140 205 -204 345 -155 128 45 189 161 190 360 0 139 -24 215 -92 289 -39 43
-62 59 -102 71 -54 16 -125 18 -167 6z"/>
</g>
</svg>
